<svg width="30" height="31" viewBox="0 0 30 31" fill="none" xmlns="http://www.w3.org/2000/svg">
<path fill-rule="evenodd" clip-rule="evenodd" d="M7.07894 16.2005H10.2938C11.7012 16.2005 12.4048 16.7169 12.4048 17.7498V17.9244C12.4048 19.0735 11.7786 19.6481 10.5262 19.6483H7.07894V16.2005ZM20.752 14.1278C20.9992 14.132 21.2454 14.158 21.488 14.2056C22.4434 14.5801 22.9211 15.2128 22.9211 16.1037H18.6023C18.6023 16.0131 18.641 15.8452 18.7185 15.6001C19.0284 14.6185 19.7063 14.1278 20.7521 14.1278H20.752ZM20.752 11.9587C20.0556 11.956 19.3652 12.0875 18.7185 12.346C16.8593 13.2112 15.9297 14.7027 15.9297 16.8204V17.595C15.9297 18.5765 16.175 19.4611 16.6656 20.2487C17.6985 21.6304 19.0607 22.3211 20.752 22.321C21.9657 22.321 22.9535 22.0693 23.7152 21.5658C24.8643 20.6488 25.4389 19.8804 25.4389 19.2605C25.4389 19.1447 25.4066 19.0863 25.342 19.0863H22.8825C22.4563 19.8481 21.7978 20.2291 20.907 20.2292C20.7036 20.2218 20.502 20.1893 20.3066 20.1324C19.093 19.8097 18.4861 19.0479 18.4861 17.847H25.4969C25.5101 17.8489 25.5236 17.8476 25.5362 17.8434C25.5488 17.8392 25.5603 17.8321 25.5697 17.8226C25.5791 17.8132 25.5862 17.8017 25.5904 17.789C25.5946 17.7764 25.5957 17.7629 25.5938 17.7498V16.9557C25.5922 16.625 25.5663 16.2949 25.5164 15.968C24.9998 13.2952 23.4117 11.9588 20.752 11.9587V11.9587ZM7.07894 11.1257H10.197C11.4881 11.1257 12.1337 11.5905 12.1336 12.5202V12.5591C12.1196 12.7886 12.0807 13.0158 12.0175 13.2369C11.8238 13.7533 11.0362 14.0117 9.65467 14.0119H7.07894V11.1257V11.1257ZM17.7695 9.55697C17.7308 9.55697 17.705 9.58303 17.6921 9.63435V10.8157C17.6921 10.9064 17.7179 10.9515 17.7695 10.9515H23.3666C23.4441 10.9515 23.4828 10.9062 23.4828 10.8157V9.63435C23.4828 9.58304 23.4441 9.55697 23.3666 9.55697L17.7695 9.55697ZM4.50309 8.82082C4.48019 8.81928 4.45755 8.82636 4.43962 8.84069C4.42169 8.85501 4.40978 8.87553 4.40623 8.8982V21.8948C4.40435 21.908 4.40556 21.9214 4.40976 21.934C4.41397 21.9466 4.42105 21.9581 4.43044 21.9675C4.43984 21.9769 4.4513 21.9839 4.46391 21.9882C4.47652 21.9924 4.48993 21.9936 4.50309 21.9917H9.38356C10.8038 21.9917 11.8497 21.9078 12.521 21.7401C14.3028 21.0296 15.1937 19.7964 15.1937 18.0407V18.0018C15.1937 16.4782 14.5546 15.4517 13.2763 14.9223C14.3093 14.3281 14.8258 13.4435 14.8258 12.2686C14.8192 12.0216 14.7932 11.7755 14.7482 11.5325C14.3093 9.725 13.044 8.82113 10.9523 8.82085L4.50309 8.82082ZM15 0.570923C23.2843 0.570923 30.0001 7.28647 30.0001 15.5711C30.0001 23.8554 23.2843 30.5709 15 30.5709C6.71575 30.5709 0 23.8554 0 15.5711C0 7.28644 6.71575 0.570923 15 0.570923Z" fill="#2E0BB8"/>
</svg>
