<svg width="30" height="30" viewBox="0 0 30 30" fill="none" xmlns="http://www.w3.org/2000/svg">
<path fill-rule="evenodd" clip-rule="evenodd" d="M16.5047 16.4866C17.2829 18.2373 17.9395 20.4625 18.4745 23.1619C17.0763 23.9159 15.7509 24.2929 14.4984 24.2929C12.6867 24.2929 11.0331 23.5268 9.53752 21.9946C11.0452 19.4167 13.3676 17.5806 16.5047 16.4866ZM20.3531 15.8845C21.5196 15.8804 22.6786 16.0716 23.782 16.4501C23.3077 19.0277 22.0432 21.0036 19.9883 22.3778C19.6722 20.6998 19.1007 18.5901 18.2739 16.0488C18.9618 15.9417 19.6569 15.8868 20.3531 15.8845ZM15.0274 13.4952H15.0821C15.0821 13.6293 15.3739 14.1279 15.9576 14.9911C12.7961 15.9999 10.2792 17.9819 8.4067 20.937C6.88677 19.3194 6.12681 17.313 6.12683 14.9178V14.754C9.28825 14.754 12.2551 14.3344 15.0274 13.4952ZM21.867 9.39157C23.1558 10.9239 23.8306 12.7659 23.8914 14.9178C22.5402 14.6467 21.1659 14.5063 19.7878 14.4987C19.0987 14.4968 18.4103 14.5393 17.7268 14.6261C17.604 14.3264 17.4639 14.034 17.3072 13.7505C17.1248 13.3615 16.9972 13.0637 16.9242 12.8571C18.9791 12.0668 20.6267 10.9116 21.867 9.39157ZM11.1607 6.96588C11.8173 7.79265 12.9299 9.48274 14.4984 12.0362C12.1518 12.7537 9.42207 13.1306 6.30928 13.1671C6.92935 10.3582 8.54651 8.29114 11.1607 6.96588ZM15.3192 5.99925C17.4106 5.99925 19.2588 6.7714 20.8638 8.31569C19.8911 9.62868 18.3529 10.7047 16.2494 11.5437C15.532 10.2548 14.4316 8.51597 12.9482 6.32739C13.721 6.11594 14.518 6.00564 15.3192 5.99925ZM14.3708 4.57661C11.6958 4.80751 9.44635 5.82284 7.62246 7.62258C5.78644 9.48261 4.77114 11.732 4.57654 14.3708V15.6474C5.33044 21.4352 8.59518 24.6938 14.3708 25.4234H15.6293C18.3043 25.1925 20.5537 24.1773 22.3776 22.3778C24.1772 20.5658 25.1924 18.3223 25.4234 15.6474V14.4254C25.1925 11.6654 24.1772 9.39778 22.3776 7.62258C20.5051 5.78656 18.2435 4.77123 15.5927 4.57661H14.3708ZM15 0C23.2843 0 30 6.71595 30 15.0002C30 23.2844 23.2843 30 15 30C6.71573 30 0 23.2844 0 15.0002C0 6.71595 6.71573 0 15 0Z" fill="#F73AAB"/>
</svg>
