<svg width="30" height="28" viewBox="0 0 30 28" fill="none" xmlns="http://www.w3.org/2000/svg">
  <path fill-rule="evenodd" clip-rule="evenodd" d="M9.21605 16.687L8.30277 15.1658L9.65059 14.3708L10.5609 15.887L16.8374 26.1662C16.9432 26.3395 17.1327 26.4454 17.337 26.4454H23.8885C24.359 26.4454 24.6364 25.922 24.3693 25.538L16.6258 14.403C16.464 14.1704 16.4953 13.8559 16.6999 13.6591L28.25 2.54889C28.6264 2.18682 28.3678 1.55464 27.8433 1.55464H21.4552C21.2941 1.55464 21.1402 1.62057 21.0299 1.73683L11.2232 12.068L9.7229 13.6826C9.54792 13.8709 9.51851 14.1508 9.65059 14.3708L8.30277 15.1658C7.81595 14.355 7.92433 13.3234 8.56927 12.6294L10.0752 11.0087L19.8876 0.67152C20.2943 0.242992 20.8616 0 21.4552 0H27.8433C29.7765 0 30.7296 2.33006 29.3423 3.66455L18.3896 14.2001L25.6607 24.6557C26.6449 26.071 25.6228 28 23.8885 28H17.337C16.5839 28 15.8856 27.6098 15.4956 26.9712L9.21605 16.687Z" fill="white"></path>
  <path d="M8.93752 25.7196L2.94719 15.3953L2.0784 13.8724C1.95234 13.6515 1.98041 13.3704 2.14741 13.1812L3.57934 11.5596L12.9388 1.183C13.0441 1.06622 13.191 1 13.3447 1H19.4415C19.9421 1 20.1889 1.63496 19.8297 1.99862L8.80627 13.1576C8.611 13.3553 8.5811 13.6711 8.73552 13.9048L16.126 25.0886C16.3809 25.4743 16.1162 26 15.6671 26H9.41435C9.21933 26 9.0385 25.8937 8.93752 25.7196Z" fill="white"></path>
  <path fill-rule="evenodd" clip-rule="evenodd" d="M1.21605 16.687L0.302771 15.1658L1.65059 14.3708L2.56089 15.887L8.83741 26.1662C8.94322 26.3395 9.13269 26.4454 9.33702 26.4454H15.8885C16.359 26.4454 16.6364 25.922 16.3693 25.538L8.62577 14.403C8.46397 14.1704 8.4953 13.8559 8.69989 13.6591L20.25 2.54889C20.6264 2.18682 20.3678 1.55464 19.8433 1.55464H13.4552C13.2941 1.55464 13.1402 1.62057 13.0299 1.73683L3.22325 12.068L1.7229 13.6826C1.54792 13.8709 1.51851 14.1508 1.65059 14.3708L0.302771 15.1658C-0.184052 14.355 -0.0756737 13.3234 0.56927 12.6294L2.07525 11.0087L11.8876 0.67152C12.2943 0.242992 12.8616 0 13.4552 0H19.8433C21.7765 0 22.7296 2.33006 21.3423 3.66455L10.3896 14.2001L17.6607 24.6557C18.6449 26.071 17.6228 28 15.8885 28H9.33702C8.5839 28 7.88556 27.6098 7.49561 26.9712L1.21605 16.687Z" fill="white"></path>
</svg>