<svg class="svg-primary" width="50" height="56" viewBox="0 0 50 56" fill="none" xmlns="http://www.w3.org/2000/svg">
  <path d="M0.83666 33.3524L0.836632 33.3524L0.837292 33.3561L3.98039 51.1089L3.98024 51.1089L3.98207 51.1175C4.28593 52.5408 4.93906 53.5819 5.86158 54.2641C6.78123 54.9442 7.94458 55.25 9.24032 55.25L40.7778 55.25L40.7803 55.25C42.1772 55.2361 43.3735 54.845 44.283 54.1277C45.1937 53.4095 45.8003 52.3769 46.0373 51.1114L46.0377 51.1089L49.1791 33.3561L49.1793 33.3562L49.1807 33.346C49.4233 31.5484 49.0202 29.932 48.1031 28.7601C47.1836 27.5853 45.7637 26.879 44.0223 26.879H11.9265C14.4466 23.8679 17.9037 21.8179 21.7176 21.0611C23.6685 21.8828 26.3626 21.9335 28.2937 21.0652C31.3267 21.6695 34.1364 23.0858 36.4263 25.1561C36.6909 25.4027 36.9964 25.4975 37.2901 25.466C37.5777 25.4351 37.8331 25.2857 38.0147 25.0819C38.1964 24.8782 38.3159 24.6072 38.3155 24.3175C38.315 24.0219 38.1893 23.7272 37.9174 23.489C35.9615 21.7205 33.6657 20.3856 31.1827 19.5428C33.7205 17.641 35.3685 14.6006 35.3685 11.1777C35.3685 5.42959 30.7223 0.75 25.0082 0.75C19.2941 0.75 14.6479 5.42959 14.6479 11.1777C14.6479 14.6008 16.2975 17.6412 18.8355 19.5429C14.9426 20.8655 11.514 23.4021 9.11528 26.879H5.99583C4.16936 26.879 2.73652 27.6571 1.83259 28.8661C0.931931 30.0707 0.567718 31.6868 0.83666 33.3524ZM26.7891 8.08552L26.7814 8.08992L26.7739 8.09487C23.2693 10.4321 19.712 11.1841 16.8849 11.3348C16.882 11.2829 16.88 11.2319 16.88 11.1777C16.88 6.64396 20.5086 2.99194 25.0082 2.99194C29.5078 2.99194 33.1381 6.64403 33.1381 11.1777C33.1381 11.5075 33.113 11.832 33.0723 12.1545C30.2522 11.4188 29.0444 9.84843 28.3913 8.53369C28.2351 8.18103 27.9623 7.98311 27.6531 7.92372C27.3539 7.86626 27.0422 7.94166 26.7891 8.08552ZM43.8454 50.7191L43.8453 50.7194C43.6875 51.6213 43.2813 52.1812 42.753 52.5226C42.2156 52.8699 41.5253 53.0081 40.7778 53.0081L9.24032 53.008L9.23636 53.0081C8.3317 53.0224 7.63366 52.7939 7.13196 52.4008C6.63132 52.0085 6.30426 51.4352 6.17085 50.7179C6.17078 50.7176 6.17072 50.7172 6.17065 50.7169L3.03569 32.9668C2.88125 31.7754 3.13564 30.8242 3.6559 30.1714C4.17503 29.5201 4.98254 29.1358 5.99767 29.121H44.0223C45.2902 29.121 46.0864 29.6405 46.5407 30.3588C47.0032 31.09 47.129 32.057 46.9814 32.9628C46.9813 32.9633 46.9813 32.9638 46.9812 32.9644L43.8454 50.7191ZM17.2381 13.5601C20.0623 13.3655 23.5374 12.5786 27.0165 10.5178C28.0111 12.0109 29.6887 13.5679 32.5078 14.325C31.2857 17.2866 28.3978 19.3618 25.0082 19.3618C21.3335 19.3618 18.2485 16.9235 17.2381 13.5601Z" fill="#122261" stroke="#122261" stroke-width="0.5"></path>
</svg>